<?xml version="1.0" encoding="UTF-8"?>
<svg id="Layer_2" data-name="Layer 2" xmlns="http://www.w3.org/2000/svg" viewBox="0 0 216.03 189.52">
  <g id="Layer_1-2" data-name="Layer 1">
    <g>
      <path fill="white" d="m189.06,188.76c-4.28,1.51-6.91.54-9.51-1.59-5.9-4.83-11.72-9.81-18.02-14.07-5.35-3.62-11.52-5.44-18-6.72-6.53-1.29-13.3.12-19.44-2.7-5.3,11.56-19.85,11.15-29.09,5.32-2.41-1.52-3.93-1.41-6.27-.54-11.64,4.35-21.86,11.08-31.47,18.77-2.73,2.18-5.52,2.63-9.25,2.05,2.99-3.16,6.39-5.29,9.58-7.69,9-6.78,18.64-12.35,29.36-15.97,3.3-1.11,5.92-2.78,5.79-6.53-1.4-1.81-3.01-1.28-4.44-1.28-15.4,0-29.85-3.26-42.61-12.32-1.82-1.29-3.65-1.39-5.66-.7-5.71,1.95-11.58,3.05-17.61,2.58-5.62-.43-10.76,1.61-16.09,2.69-2.24.45-4.23.66-6.25-1.07,0-7.33-.26-14.8.09-22.25.26-5.58,1.34-11.12,1.97-16.69.14-1.23.8-2.14,1.24-3.19,1.15-2.72,1.82-5-.46-8.13-2.87-3.94-2.95-8.82-.4-13.57,2.87-5.33,3.69-11.54,7.19-16.7,3.9-5.77,7.24-11.91,12.44-16.72,4.53-4.19,7.54-9.63,11.69-14.19,9.01-9.87,18.71-18.77,30.98-24.37,8.22-3.75,17-6.08,25.44-9.14C103.32-.69,116.42-.15,129.62.25c12.55.38,24.84,2.57,36.6,7.56,4.25,1.8,7.84,3.89,10.93,7.26,2.34,2.56,5.69,4.02,8.35,6.2,6.47,5.29,11.08,12.21,15.39,19.27,5.77,9.44,8.06,19.96,9.18,30.79.17,1.6,1.29,2.23,2.07,3.23,3.31,4.27,5.89,8.63,1.73,13.82-.69.86-.96,1.85-.65,2.79,2.21,6.7,1.04,13.47.73,20.26-.21,4.47-.23,8.95.42,13.44.71,4.94-.26,6.32-5.28,7.04-6.05.87-12.18,1.52-18.29,1.63-6.99.13-13.93.58-20.87,1.28-5.01.51-8.72,3.71-12.95,5.75-7.47,3.61-15.01,7.04-22.66,10.2-4.36,1.8-9.1,2.67-13.84,4-.77,1.59-.24,3.4-.21,5.44,12.54,1.36,25.53.66,37.19,6.4,11.45,5.64,20.78,14.37,31.61,22.14ZM21.08,76.52c.31,9.3-1.31,18.92,1.49,28.45,1.9,6.46,4.94,12.36,8.58,17.85,7.95,12,17.81,22.08,31.99,26.48,14.01,4.35,28.49,4.28,42.87,2.62,13.25-1.53,25.74-5.98,37.96-11.31,11.08-4.83,21.45-10.51,29.47-19.82,5.87-6.81,11.63-13.71,14.64-22.35,4.12-11.86,4.65-24.32,5.81-36.67.11-1.15-.42-2.26-1.39-2.95-15.49.7-30.88,1.33-46.27,2.66-8.14.7-16,2.4-23.92,3.98-3.02.6-4.82-.07-6.13-2.64-2.35-4.6-4.46-9.24-4.15-14.61.26-4.53-1.18-8.62-3.03-12.56-1.36.41-1.82,1.06-2.06,1.91-1.72,6.05-3.59,12.06-5.14,18.16-2.08,8.15-3.28,9.64-10.98,10.59-9.39,1.15-18.8,2.27-28.24,2.84-11.29.68-22.52,1.46-33.51,4.34-2.53.66-5.41.18-8.01,3.05Zm178.84-21.61c-6.2-18.12-16.34-33.17-33.85-41.38-14.61-6.85-30.39-9.06-47.96-7.23-12.14-2.44-24.64.77-36.54,7.11-.53-.65-.91-.99-1.13-1.42-.31-.59-.52-1.22-1.13-1.23-15.94,5.4-29.02,14.51-40.02,27.08-4.16,4.76-7.42,10.17-11.74,14.7-5.59,5.85-9.39,12.82-13.26,19.77-.96,1.73-1.42,3.77,1.09,5.06.83-3.33.86-3.29,3.57-4.64,9.25-4.62,19.39-5.75,29.38-7.04,13.79-1.79,27.69-2.57,41.49-4.43,3.85-.52,5.45-2,6.36-5.49,2.47-9.45,5.35-18.78,8.93-27.87.61-1.55,1.07-3.42,3.12-3.43,1.98-.01,2.6,1.57,3.17,3.27,2.59,7.82,5.35,15.57,5.74,23.93.15,3.28.85,6.49,2.99,9.06,5.61-1.25,10.93-2.44,16.36-2.95,13.72-1.29,27.44-2.81,41.19-3.61,5.28-.31,10.89-1.93,16.14,1.31,1.75-2.98,3.69-2.38,6.11-.57ZM38.38,139.82c-9.06-10.54-16.89-21.27-20.97-34.27h-8.47c-3.67,12.81-3.35,25.75-2.96,39.38,10.44-4.59,21.45-1.58,32.39-5.11Zm168.13-14.76c-.09-10.68.07-20.9,1.22-31.66-4.28,1.51-8.2,1.61-12.66,1.72-2.96,13.09-11.45,23.02-20.2,33.37,11.26.61,21.33-.96,31.64-3.42Zm-91.92,31.65c-5.85-.5-11,1.63-16.28,1.49-.92,3.53-.15,6.3,1.27,9.11,5.07.73,10.04,1.21,15.01-1.17v-9.43Zm83.95-81.75c.05,4.81-2.2,9.32-1.27,14.44,2.82-.57,5.51-.76,7.94-1.68,7.59-2.86,7.58-7.34,2.88-12.41-2.75-2.97-6.11-1.36-9.55-.36Zm-182.81,4.56c-4.35,1.44-6.51,4.42-8.54,7.4-2.14,3.14-2.18,6.48-.08,9.76,2.26,3.52,5.4,3.75,9.11,2.75-.96-6.66,0-13.1-.49-19.92Z"/>
      <path fill="white" d="m153.28,87.76c-7.09,3.2-10.87,8.87-12.18,16.01-4.17-.4-5.14-2.26-5.12-5.47.05-6.85-.91-7.93-7.47-9.4-1.68-.37-3.3-.51-3.78-2.63,1.45-1.95,3.77-1.96,5.78-2.34,5.53-1.04,8.39-3.89,8.67-9.58.12-2.38.24-4.34,3.3-4.71,5.29,2.98,2.05,9.36,5.14,13.27,1.66,1.54,4.92,1.08,5.66,4.85Zm-8.96-.35c-.89-1.66-1.94-3.34-3.52-4.71-1.48,1.59-2.76,2.97-4.03,4.33,1.12,1.55,1.96,2.96,3.84,3.68.85-1.1,2.66-.93,3.71-3.3Z"/>
      <path fill="white" d="m68.8,106.61c-3.31-1.58-4.05-4.15-3.9-7.42.2-4.43-.73-5.38-5.26-5.79-1.93-.17-3.57-.6-4.53-2.46.46-1.64,1.64-2.26,3.18-2.73,5.15-1.59,6.51-4.11,5.08-9.3-.43-1.57-1.55-3.05.28-4.83,1.98-.01,3.78.15,4.51,2.98,1.16,4.52,4.11,7.36,8.86,8.09,1.39.21,2.54.74,2.9,2.27.09,1.16-.55,2.09-1.48,2.38-6.3,1.95-7.3,6.87-7.18,12.47.04,1.74-.25,3.31-2.47,4.34Zm-.29-20.82c-2,1.4-3.07,2.99-1.83,5.56q4.6-2.44,1.83-5.56Z"/>
      <path fill="white" d="m84.74,118.67c1.09-2.02,2.27-2.01,3.7-1.58,10.03,3.03,20.19,3.27,30.5,1.64,2.61-.41,6.56-1.57,7.14,2.17.6,3.85-3.83,3-6,3.5-4.86,1.12-10.02.94-14.9.26-5.37-.75-10.91-.82-16.09-2.89-1.75-.7-3.31-1.34-4.35-3.1Z"/>
      <path fill="white" d="m96.38,108.18c-2.62-3.22-.03-5.87,1.93-8.38,2.28-2.93,6.58-4,9.94-2.53,2.4,1.05,4.67,2.45,6.24,4.77,2.6,3.84,1.15,7.56-3.43,7.81-3.54.19-7.46,1.18-10.4-1.9-1.67-1.74-2.45,1.38-4.28.23Zm4.56-4.61c3.05,1.56,5.66,3.74,9.02,1.7.6-3.28-1.82-3.92-3.73-4.38-1.96-.48-4.35-.74-5.29,2.69Z"/>
    </g>
  </g>
</svg>